<svg width="20" height="21" viewBox="0 0 20 21" fill="none" xmlns="http://www.w3.org/2000/svg">
<path d="M10.016 20.243C8.648 20.243 7.37 20 6.182 19.514C4.994 19.01 3.95 18.317 3.05 17.435C2.168 16.535 1.475 15.491 0.971 14.303C0.485 13.115 0.242 11.837 0.242 10.469C0.242 9.083 0.485 7.805 0.971 6.635C1.475 5.447 2.168 4.412 3.05 3.53C3.95 2.648 4.985 1.964 6.155 1.478C7.343 0.973999 8.63 0.721999 10.016 0.721999C11.402 0.721999 12.68 0.973999 13.85 1.478C15.038 1.964 16.073 2.648 16.955 3.53C17.837 4.412 18.521 5.447 19.007 6.635C19.511 7.805 19.763 9.083 19.763 10.469C19.763 11.837 19.511 13.115 19.007 14.303C18.521 15.491 17.837 16.535 16.955 17.435C16.073 18.317 15.038 19.01 13.85 19.514C12.68 20 11.402 20.243 10.016 20.243ZM10.016 19.055C11.222 19.055 12.338 18.839 13.364 18.407C14.408 17.975 15.308 17.372 16.064 16.598C16.838 15.806 17.441 14.897 17.873 13.871C18.305 12.827 18.521 11.693 18.521 10.469C18.521 9.245 18.305 8.12 17.873 7.094C17.441 6.05 16.838 5.141 16.064 4.367C15.308 3.593 14.408 2.99 13.364 2.558C12.338 2.126 11.222 1.91 10.016 1.91C8.792 1.91 7.658 2.126 6.614 2.558C5.588 2.99 4.688 3.593 3.914 4.367C3.158 5.141 2.564 6.05 2.132 7.094C1.7 8.12 1.484 9.245 1.484 10.469C1.484 11.693 1.7 12.827 2.132 13.871C2.564 14.897 3.158 15.806 3.914 16.598C4.688 17.372 5.588 17.975 6.614 18.407C7.658 18.839 8.792 19.055 10.016 19.055ZM7.019 16.328C6.425 16.328 6.128 16.013 6.128 15.383V5.852C6.128 5.51 6.218 5.249 6.398 5.069C6.578 4.871 6.848 4.772 7.208 4.772H10.745C11.969 4.772 12.905 5.069 13.553 5.663C14.219 6.239 14.552 7.04 14.552 8.066C14.552 9.11 14.219 9.911 13.553 10.469C12.905 11.009 11.987 11.279 10.799 11.279L11.123 11.009C11.663 11.009 12.113 11.126 12.473 11.36C12.833 11.576 13.13 12.008 13.364 12.656L14.309 15.14C14.453 15.518 14.435 15.815 14.255 16.031C14.075 16.229 13.823 16.328 13.499 16.328C13.283 16.328 13.103 16.265 12.959 16.139C12.815 15.995 12.716 15.824 12.662 15.626L11.528 12.656C11.366 12.206 11.114 11.909 10.772 11.765C10.448 11.603 10.052 11.522 9.584 11.522H7.559L7.91 11.252V15.383C7.91 16.013 7.613 16.328 7.019 16.328ZM7.91 10.064H10.529C11.285 10.064 11.852 9.911 12.23 9.605C12.608 9.299 12.797 8.813 12.797 8.147C12.797 7.481 12.608 6.995 12.23 6.689C11.87 6.383 11.303 6.23 10.529 6.23H7.91V10.064Z" fill="#222222"/>
</svg>
